<svg width="505" height="504" viewBox="0 0 505 504" fill="none" xmlns="http://www.w3.org/2000/svg">
<g filter="url(#filter0_i)">
<mask id="path-1-inside-1" fill="white">
<path d="M466.936 264.132C465.394 256.097 458.367 250.287 450.185 250.283H433.707L432.495 243.021C431.287 235.727 425.54 230.028 418.236 228.881C416.615 228.625 414.977 228.454 413.364 228.232C416.158 215.187 413.837 201.566 406.878 190.182C410.555 180.646 409.869 169.978 405.001 160.991C400.133 152.005 391.573 145.602 381.577 143.471C375.187 109.269 345.432 84.4078 310.639 84.1982C309.786 84.1982 309.027 84.3092 308.216 84.3348C302.656 75.6039 293.491 69.8093 283.219 68.5318C272.948 67.2542 262.642 70.627 255.113 77.73C245.629 71.5648 234.562 68.2779 223.25 68.2665C205.023 68.3411 187.845 76.8011 176.675 91.2041C164.272 87.5874 150.897 89.8081 140.329 97.239C129.76 104.67 123.145 116.504 122.351 129.399C109.324 134.876 100.847 147.626 100.839 161.758C100.866 164.207 101.152 166.647 101.692 169.037C90.1713 186.405 87.1608 208.065 93.5088 227.917C91.2219 228.232 88.8837 228.514 86.6821 228.838C79.3405 229.946 73.5426 235.647 72.312 242.969L71.1003 250.257H54.5797C46.412 250.263 39.3933 256.054 37.8373 264.072L0.469865 455.919C-0.98946 463.432 0.989462 471.204 5.86419 477.105C10.7389 483.005 17.998 486.415 25.6517 486.4H203.606C210.671 498.056 232.141 503.467 252.382 503.467C272.41 503.467 293.675 498.184 300.946 486.4H479.113C486.765 486.415 494.022 483.006 498.897 477.108C503.771 471.209 505.751 463.439 504.295 455.927L466.936 264.132ZM126.644 177.203C119.715 173.037 116.409 164.767 118.555 156.973C120.701 149.178 127.775 143.767 135.86 143.735C141.518 143.719 146.843 146.408 150.187 150.972C152.004 153.42 154.989 154.712 158.018 154.363C161.046 154.013 163.659 152.075 164.87 149.277C166.082 146.479 165.709 143.248 163.892 140.8C158.097 133.055 149.316 128.101 139.691 127.147C142.235 115.196 152.774 106.64 164.993 106.607C166.034 106.66 167.071 106.774 168.099 106.948C167.412 108.698 166.814 110.48 166.307 112.29C165.245 116.807 167.987 121.345 172.48 122.505C176.973 123.666 181.569 121.023 182.827 116.557C183.798 112.806 185.288 109.21 187.256 105.873C194.825 93.1919 208.481 85.3992 223.25 85.3332C231.287 85.3688 239.141 87.7406 245.854 92.1598C244.575 95.7533 243.898 99.5331 243.849 103.347C243.849 108.06 247.67 111.88 252.382 111.88C257.095 111.88 260.916 108.06 260.916 103.347C260.916 93.4336 268.952 85.3972 278.866 85.3972C288.779 85.3972 296.815 93.4336 296.815 103.347C296.815 108.06 300.636 111.88 305.349 111.88C310.062 111.88 313.882 108.06 313.882 103.347C313.882 102.69 313.72 102.067 313.686 101.41C338.12 102.918 358.666 120.286 364.22 144.128C360.24 145.287 356.5 147.151 353.178 149.632C350.739 151.461 349.461 154.452 349.826 157.479C350.191 160.506 352.142 163.108 354.946 164.306C357.75 165.503 360.979 165.114 363.418 163.285C370.237 158.236 379.657 158.639 386.02 164.251C392.384 169.863 393.96 179.159 389.803 186.556C387.946 189.822 385.123 192.433 381.722 194.031C378.156 195.757 376.247 199.712 377.114 203.578C377.981 207.444 381.395 210.205 385.357 210.244C386.609 210.246 387.845 209.969 388.975 209.433C391.237 208.337 393.374 207.001 395.35 205.448C399.761 217.989 396.994 231.936 388.131 241.843L387.926 242.056C376.809 254.099 359.075 257.354 344.406 250.044C342.969 249.285 341.589 248.423 340.276 247.467C346.561 238.655 347.429 227.08 342.529 217.429C341.157 214.705 338.436 212.92 335.391 212.746C332.346 212.572 329.439 214.036 327.766 216.586C326.093 219.136 325.908 222.385 327.279 225.109C330.085 230.749 328.335 237.594 323.166 241.195C320.131 243.215 316.381 243.855 312.848 242.953C309.314 242.052 306.329 239.695 304.632 236.467C303.268 233.74 300.552 231.948 297.508 231.766C294.465 231.584 291.555 233.04 289.875 235.585C288.196 238.13 288.002 241.377 289.366 244.104C294.37 254.207 304.682 260.587 315.956 260.557C319.626 260.532 323.259 259.817 326.665 258.449C329.713 261.117 333.071 263.409 336.666 265.276C348.828 271.58 362.97 272.887 376.082 268.919C367.649 280.434 355.028 288.172 340.941 290.466C336.559 291.179 333.456 295.134 333.806 299.561C334.155 303.987 337.841 307.405 342.281 307.422C342.735 307.422 343.189 307.387 343.638 307.319C348.834 306.42 353.912 304.937 358.776 302.899C361.405 307.547 363.538 312.458 365.142 317.551C365.436 318.44 365.585 319.371 365.586 320.307C365.583 323.995 363.381 327.326 359.988 328.772C356.063 330.29 351.606 329.093 348.971 325.811C342.363 318.05 333.709 312.3 323.994 309.214C305.554 303.036 298.437 297.515 295.416 291.507C299.844 290.955 304.219 290.041 308.498 288.776C311.412 287.88 313.627 285.497 314.308 282.525C314.989 279.553 314.033 276.443 311.799 274.367C309.566 272.291 306.395 271.564 303.48 272.461C298.692 273.93 293.749 274.837 288.751 275.166C279.123 275.918 269.45 274.459 260.472 270.899C257.101 269.584 253.268 270.539 250.906 273.28C238.482 287.551 217.218 289.977 201.899 278.87C186.579 267.764 182.273 246.799 191.975 230.553C193.547 227.93 193.599 224.668 192.113 221.995C190.627 219.322 187.828 217.645 184.77 217.596C181.712 217.547 178.861 219.132 177.289 221.756C175.253 225.221 173.616 228.905 172.408 232.738C165.688 232.384 160.389 226.888 160.282 220.16V219.947C160.278 217.695 159.374 215.538 157.771 213.957C156.169 212.375 154 211.499 151.749 211.524C147.016 211.571 143.206 215.426 143.215 220.16C143.253 235.293 154.666 247.978 169.711 249.608C169.742 252.469 170.002 255.323 170.488 258.142C151.435 262.264 131.673 255.416 119.257 240.387C106.841 225.358 103.845 204.659 111.489 186.726C113.398 188.658 115.529 190.356 117.837 191.787C121.868 194.148 127.049 192.829 129.46 188.827C131.871 184.825 130.615 179.629 126.644 177.169V177.203ZM89.0971 245.751C93.0309 245.171 97.0928 244.659 101.129 244.13C116.907 269.343 147.082 281.585 175.966 274.492C183.727 289.222 197.909 299.494 214.324 302.276C230.74 305.058 247.514 300.033 259.695 288.683C265.494 290.412 271.467 291.494 277.505 291.908C281.626 307.541 293.539 317.013 318.567 325.401C325.314 327.517 331.333 331.481 335.941 336.845C341.063 342.936 348.599 346.476 356.557 346.53C360.038 346.529 363.483 345.827 366.686 344.465C376.359 340.331 382.634 330.826 382.635 320.307C382.643 317.564 382.205 314.837 381.338 312.235C379.419 306.205 376.892 300.387 373.795 294.869C388.305 284.438 398.414 268.979 402.151 251.503C403.968 249.344 405.612 247.044 407.066 244.625C409.925 244.992 412.783 245.316 415.659 245.794L446.465 431.087C386.249 410.98 321.131 410.98 260.916 431.087V324.267C260.916 319.554 257.095 315.733 252.382 315.733C247.67 315.733 243.849 319.554 243.849 324.267V431.121C183.64 410.995 118.524 410.971 58.3003 431.053L89.0971 245.751ZM19.0043 466.193C17.3918 464.245 16.7345 461.679 17.2123 459.196L54.5797 267.349H68.2331L41.4555 428.279C40.5136 434.137 42.6704 440.065 47.1563 443.948C51.6421 447.83 57.818 449.115 63.48 447.343C108.971 432.605 157.436 429.529 204.425 438.4L201.882 469.333H25.6517C23.0774 469.335 20.6378 468.183 19.0043 466.193ZM252.382 486.4C231.826 486.4 220.033 480.324 218.3 477.619L221.236 442.206C230.619 444.542 239.801 447.621 248.696 451.413C249.846 451.967 251.106 452.259 252.382 452.267C253.663 452.265 254.926 451.973 256.077 451.413C264.967 447.599 274.146 444.5 283.529 442.146L286.465 477.611C284.732 480.324 272.939 486.4 252.382 486.4V486.4ZM485.761 466.193C484.127 468.183 481.687 469.335 479.113 469.333H302.908L300.348 438.34C347.363 429.488 395.849 432.589 441.353 447.36C447.014 449.109 453.176 447.806 457.645 443.916C462.114 440.026 464.253 434.101 463.301 428.254L436.549 267.358H450.202L487.578 459.187C488.052 461.677 487.385 464.247 485.761 466.193V466.193Z"/>
</mask>
<path d="M466.936 264.132C465.394 256.097 458.367 250.287 450.185 250.283H433.707L432.495 243.021C431.287 235.727 425.54 230.028 418.236 228.881C416.615 228.625 414.977 228.454 413.364 228.232C416.158 215.187 413.837 201.566 406.878 190.182C410.555 180.646 409.869 169.978 405.001 160.991C400.133 152.005 391.573 145.602 381.577 143.471C375.187 109.269 345.432 84.4078 310.639 84.1982C309.786 84.1982 309.027 84.3092 308.216 84.3348C302.656 75.6039 293.491 69.8093 283.219 68.5318C272.948 67.2542 262.642 70.627 255.113 77.73C245.629 71.5648 234.562 68.2779 223.25 68.2665C205.023 68.3411 187.845 76.8011 176.675 91.2041C164.272 87.5874 150.897 89.8081 140.329 97.239C129.76 104.67 123.145 116.504 122.351 129.399C109.324 134.876 100.847 147.626 100.839 161.758C100.866 164.207 101.152 166.647 101.692 169.037C90.1713 186.405 87.1608 208.065 93.5088 227.917C91.2219 228.232 88.8837 228.514 86.6821 228.838C79.3405 229.946 73.5426 235.647 72.312 242.969L71.1003 250.257H54.5797C46.412 250.263 39.3933 256.054 37.8373 264.072L0.469865 455.919C-0.98946 463.432 0.989462 471.204 5.86419 477.105C10.7389 483.005 17.998 486.415 25.6517 486.4H203.606C210.671 498.056 232.141 503.467 252.382 503.467C272.41 503.467 293.675 498.184 300.946 486.4H479.113C486.765 486.415 494.022 483.006 498.897 477.108C503.771 471.209 505.751 463.439 504.295 455.927L466.936 264.132ZM126.644 177.203C119.715 173.037 116.409 164.767 118.555 156.973C120.701 149.178 127.775 143.767 135.86 143.735C141.518 143.719 146.843 146.408 150.187 150.972C152.004 153.42 154.989 154.712 158.018 154.363C161.046 154.013 163.659 152.075 164.87 149.277C166.082 146.479 165.709 143.248 163.892 140.8C158.097 133.055 149.316 128.101 139.691 127.147C142.235 115.196 152.774 106.64 164.993 106.607C166.034 106.66 167.071 106.774 168.099 106.948C167.412 108.698 166.814 110.48 166.307 112.29C165.245 116.807 167.987 121.345 172.48 122.505C176.973 123.666 181.569 121.023 182.827 116.557C183.798 112.806 185.288 109.21 187.256 105.873C194.825 93.1919 208.481 85.3992 223.25 85.3332C231.287 85.3688 239.141 87.7406 245.854 92.1598C244.575 95.7533 243.898 99.5331 243.849 103.347C243.849 108.06 247.67 111.88 252.382 111.88C257.095 111.88 260.916 108.06 260.916 103.347C260.916 93.4336 268.952 85.3972 278.866 85.3972C288.779 85.3972 296.815 93.4336 296.815 103.347C296.815 108.06 300.636 111.88 305.349 111.88C310.062 111.88 313.882 108.06 313.882 103.347C313.882 102.69 313.72 102.067 313.686 101.41C338.12 102.918 358.666 120.286 364.22 144.128C360.24 145.287 356.5 147.151 353.178 149.632C350.739 151.461 349.461 154.452 349.826 157.479C350.191 160.506 352.142 163.108 354.946 164.306C357.75 165.503 360.979 165.114 363.418 163.285C370.237 158.236 379.657 158.639 386.02 164.251C392.384 169.863 393.96 179.159 389.803 186.556C387.946 189.822 385.123 192.433 381.722 194.031C378.156 195.757 376.247 199.712 377.114 203.578C377.981 207.444 381.395 210.205 385.357 210.244C386.609 210.246 387.845 209.969 388.975 209.433C391.237 208.337 393.374 207.001 395.35 205.448C399.761 217.989 396.994 231.936 388.131 241.843L387.926 242.056C376.809 254.099 359.075 257.354 344.406 250.044C342.969 249.285 341.589 248.423 340.276 247.467C346.561 238.655 347.429 227.08 342.529 217.429C341.157 214.705 338.436 212.92 335.391 212.746C332.346 212.572 329.439 214.036 327.766 216.586C326.093 219.136 325.908 222.385 327.279 225.109C330.085 230.749 328.335 237.594 323.166 241.195C320.131 243.215 316.381 243.855 312.848 242.953C309.314 242.052 306.329 239.695 304.632 236.467C303.268 233.74 300.552 231.948 297.508 231.766C294.465 231.584 291.555 233.04 289.875 235.585C288.196 238.13 288.002 241.377 289.366 244.104C294.37 254.207 304.682 260.587 315.956 260.557C319.626 260.532 323.259 259.817 326.665 258.449C329.713 261.117 333.071 263.409 336.666 265.276C348.828 271.58 362.97 272.887 376.082 268.919C367.649 280.434 355.028 288.172 340.941 290.466C336.559 291.179 333.456 295.134 333.806 299.561C334.155 303.987 337.841 307.405 342.281 307.422C342.735 307.422 343.189 307.387 343.638 307.319C348.834 306.42 353.912 304.937 358.776 302.899C361.405 307.547 363.538 312.458 365.142 317.551C365.436 318.44 365.585 319.371 365.586 320.307C365.583 323.995 363.381 327.326 359.988 328.772C356.063 330.29 351.606 329.093 348.971 325.811C342.363 318.05 333.709 312.3 323.994 309.214C305.554 303.036 298.437 297.515 295.416 291.507C299.844 290.955 304.219 290.041 308.498 288.776C311.412 287.88 313.627 285.497 314.308 282.525C314.989 279.553 314.033 276.443 311.799 274.367C309.566 272.291 306.395 271.564 303.48 272.461C298.692 273.93 293.749 274.837 288.751 275.166C279.123 275.918 269.45 274.459 260.472 270.899C257.101 269.584 253.268 270.539 250.906 273.28C238.482 287.551 217.218 289.977 201.899 278.87C186.579 267.764 182.273 246.799 191.975 230.553C193.547 227.93 193.599 224.668 192.113 221.995C190.627 219.322 187.828 217.645 184.77 217.596C181.712 217.547 178.861 219.132 177.289 221.756C175.253 225.221 173.616 228.905 172.408 232.738C165.688 232.384 160.389 226.888 160.282 220.16V219.947C160.278 217.695 159.374 215.538 157.771 213.957C156.169 212.375 154 211.499 151.749 211.524C147.016 211.571 143.206 215.426 143.215 220.16C143.253 235.293 154.666 247.978 169.711 249.608C169.742 252.469 170.002 255.323 170.488 258.142C151.435 262.264 131.673 255.416 119.257 240.387C106.841 225.358 103.845 204.659 111.489 186.726C113.398 188.658 115.529 190.356 117.837 191.787C121.868 194.148 127.049 192.829 129.46 188.827C131.871 184.825 130.615 179.629 126.644 177.169V177.203ZM89.0971 245.751C93.0309 245.171 97.0928 244.659 101.129 244.13C116.907 269.343 147.082 281.585 175.966 274.492C183.727 289.222 197.909 299.494 214.324 302.276C230.74 305.058 247.514 300.033 259.695 288.683C265.494 290.412 271.467 291.494 277.505 291.908C281.626 307.541 293.539 317.013 318.567 325.401C325.314 327.517 331.333 331.481 335.941 336.845C341.063 342.936 348.599 346.476 356.557 346.53C360.038 346.529 363.483 345.827 366.686 344.465C376.359 340.331 382.634 330.826 382.635 320.307C382.643 317.564 382.205 314.837 381.338 312.235C379.419 306.205 376.892 300.387 373.795 294.869C388.305 284.438 398.414 268.979 402.151 251.503C403.968 249.344 405.612 247.044 407.066 244.625C409.925 244.992 412.783 245.316 415.659 245.794L446.465 431.087C386.249 410.98 321.131 410.98 260.916 431.087V324.267C260.916 319.554 257.095 315.733 252.382 315.733C247.67 315.733 243.849 319.554 243.849 324.267V431.121C183.64 410.995 118.524 410.971 58.3003 431.053L89.0971 245.751ZM19.0043 466.193C17.3918 464.245 16.7345 461.679 17.2123 459.196L54.5797 267.349H68.2331L41.4555 428.279C40.5136 434.137 42.6704 440.065 47.1563 443.948C51.6421 447.83 57.818 449.115 63.48 447.343C108.971 432.605 157.436 429.529 204.425 438.4L201.882 469.333H25.6517C23.0774 469.335 20.6378 468.183 19.0043 466.193ZM252.382 486.4C231.826 486.4 220.033 480.324 218.3 477.619L221.236 442.206C230.619 444.542 239.801 447.621 248.696 451.413C249.846 451.967 251.106 452.259 252.382 452.267C253.663 452.265 254.926 451.973 256.077 451.413C264.967 447.599 274.146 444.5 283.529 442.146L286.465 477.611C284.732 480.324 272.939 486.4 252.382 486.4V486.4ZM485.761 466.193C484.127 468.183 481.687 469.335 479.113 469.333H302.908L300.348 438.34C347.363 429.488 395.849 432.589 441.353 447.36C447.014 449.109 453.176 447.806 457.645 443.916C462.114 440.026 464.253 434.101 463.301 428.254L436.549 267.358H450.202L487.578 459.187C488.052 461.677 487.385 464.247 485.761 466.193V466.193Z" fill="#C0E79C" stroke="black" stroke-width="2" mask="url(#path-1-inside-1)"/>
<path d="M223.868 205.293C220.895 202.002 221.15 196.925 224.438 193.95C227.728 190.976 232.806 191.232 235.781 194.52L235.781 194.52L235.787 194.526C247.636 207.217 266.95 209.419 281.351 199.719L281.355 199.717C288.843 194.563 293.996 186.663 295.694 177.732L295.694 177.732L295.695 177.724C296.19 174.861 298.191 172.488 300.929 171.518C303.667 170.548 306.715 171.132 308.902 173.044C311.088 174.957 312.071 177.901 311.473 180.744L311.473 180.744L311.471 180.752C307.399 201.658 290.764 217.832 269.751 221.314L269.467 221.361L269.365 221.63C263.198 237.961 247.535 248.743 230.078 248.674H230.076C225.64 248.674 222.043 245.077 222.043 240.64C222.043 236.204 225.639 232.607 230.076 232.607C238.489 232.62 246.385 228.548 251.254 221.687L251.693 221.068L250.951 220.909C240.51 218.67 231.037 213.207 223.868 205.293ZM300.762 171.047C297.853 172.077 295.728 174.598 295.203 177.639L230.076 249.174C247.742 249.244 263.592 238.333 269.833 221.807C291.052 218.291 307.85 201.958 311.962 180.847C312.597 177.827 311.553 174.7 309.231 172.668C306.909 170.636 303.67 170.016 300.762 171.047Z" fill="#C0E79C" stroke="black"/>
<path d="M202.389 175.787C202.389 180.223 198.792 183.82 194.356 183.82C192.225 183.82 190.182 182.973 188.675 181.467C187.169 179.96 186.322 177.917 186.322 175.787C186.346 154.393 203.683 137.057 225.076 137.033C229.513 137.033 233.109 140.63 233.109 145.067C233.109 149.503 229.512 153.1 225.076 153.1C219.059 153.1 213.288 155.49 209.034 159.745C204.779 163.999 202.389 169.77 202.389 175.787Z" fill="#C0E79C" stroke="black"/>
<path d="M260.416 8.53333V17.0667C260.416 21.5034 256.819 25.1 252.382 25.1C247.946 25.1 244.349 21.5034 244.349 17.0667V8.53333C244.349 4.09665 247.946 0.5 252.382 0.5C256.819 0.5 260.416 4.09665 260.416 8.53333Z" fill="#C0E79C" stroke="black"/>
<path d="M392.768 61.5888L392.768 61.5888L392.774 61.5826C394.791 59.4943 397.778 58.6567 400.587 59.3919C403.395 60.1271 405.589 62.3205 406.324 65.1292C407.059 67.9379 406.222 70.9247 404.133 72.9417L404.133 72.9417L404.127 72.9478L395.594 81.4811L395.594 81.4811L395.588 81.4873C393.571 83.5757 390.584 84.4132 387.775 83.678C384.966 82.9428 382.773 80.7494 382.038 77.9407C381.303 75.132 382.14 72.1452 384.228 70.1282L384.229 70.1283L384.235 70.1221L392.768 61.5888Z" fill="#C0E79C" stroke="black"/>
<path d="M111.991 61.5826L111.991 61.5826C109.974 59.4943 106.987 58.6567 104.178 59.3919C101.37 60.1271 99.1762 62.3205 98.441 65.1292C97.7058 67.9379 98.5433 70.9247 100.632 72.9417L100.638 72.9478L100.638 72.9478L109.171 81.4811L109.171 81.4812C110.677 82.9878 112.72 83.8344 114.851 83.835L111.991 61.5826ZM111.991 61.5826L111.997 61.5888M111.991 61.5826L111.997 61.5888M111.997 61.5888L120.53 70.1221C120.53 70.1221 120.53 70.1221 120.53 70.1221C122.827 72.4196 123.514 75.8742 122.271 78.8756C121.028 81.8769 118.099 83.8342 114.851 83.835L111.997 61.5888Z" fill="#C0E79C" stroke="black"/>
<path d="M180.54 47.9267C177.291 47.9275 174.362 45.9714 173.117 42.9703C173.117 42.9702 173.117 42.9702 173.117 42.9701L163.321 19.3159L163.321 19.3159L163.317 19.3058C162.144 16.6413 162.505 13.551 164.26 11.2282C166.014 8.90531 168.888 7.71341 171.772 8.11272C174.655 8.51202 177.097 10.44 178.154 13.1523L178.154 13.1523L178.158 13.1621L187.963 36.8165L187.963 36.8166C188.78 38.7852 188.781 40.9976 187.965 42.9668C187.151 44.9357 185.587 46.5001 183.618 47.3158C182.641 47.7168 181.596 47.9243 180.54 47.9267Z" fill="#C0E79C" stroke="black"/>
<path d="M316.801 36.8169L316.802 36.8163L326.606 13.162C326.606 13.162 326.606 13.162 326.606 13.1619C328.305 9.06613 333.001 7.12097 337.098 8.81597C339.069 9.63151 340.635 11.1974 341.45 13.1685C342.265 15.1396 342.263 17.354 341.444 19.3236L341.444 19.3242L331.647 42.9785C330.403 45.9793 327.474 47.9355 324.226 47.935C323.17 47.9328 322.124 47.7254 321.147 47.3244C319.176 46.5089 317.611 44.943 316.795 42.9719C315.98 41.0008 315.982 38.7864 316.801 36.8169Z" fill="#C0E79C" stroke="black"/>
<path d="M425.821 149.533L425.821 149.533C421.979 149.545 418.667 146.835 417.917 143.067C417.168 139.3 419.191 135.528 422.744 134.069L422.745 134.068L446.4 124.272C446.4 124.272 446.4 124.272 446.4 124.272C449.052 123.174 452.088 123.575 454.364 125.322C456.641 127.07 457.812 129.9 457.437 132.745C457.062 135.591 455.197 138.02 452.545 139.118L452.545 139.118L428.899 148.914L428.898 148.914C427.923 149.321 426.878 149.531 425.821 149.533Z" fill="#C0E79C" stroke="black"/>
<path d="M75.8656 148.914L75.8655 148.914L52.2196 139.118L52.2195 139.118C48.12 137.421 46.1724 132.722 47.8694 128.622C49.5665 124.523 54.2655 122.575 58.365 124.272L82.0192 134.068C82.0193 134.068 82.0193 134.068 82.0194 134.069C86.1188 135.768 88.0646 140.469 86.3653 144.568C84.666 148.668 79.9651 150.614 75.8656 148.914Z" fill="#C0E79C" stroke="black"/>
</g>
<defs>
<filter id="filter0_i" x="0" y="0" width="504.763" height="507.467" filterUnits="userSpaceOnUse" color-interpolation-filters="sRGB">
<feFlood flood-opacity="0" result="BackgroundImageFix"/>
<feBlend mode="normal" in="SourceGraphic" in2="BackgroundImageFix" result="shape"/>
<feColorMatrix in="SourceAlpha" type="matrix" values="0 0 0 0 0 0 0 0 0 0 0 0 0 0 0 0 0 0 127 0" result="hardAlpha"/>
<feOffset dy="4"/>
<feGaussianBlur stdDeviation="2"/>
<feComposite in2="hardAlpha" operator="arithmetic" k2="-1" k3="1"/>
<feColorMatrix type="matrix" values="0 0 0 0 0 0 0 0 0 0 0 0 0 0 0 0 0 0 0.25 0"/>
<feBlend mode="normal" in2="shape" result="effect1_innerShadow"/>
</filter>
</defs>
</svg>
