<svg width="480" height="480" viewBox="0 0 480 480" fill="none" xmlns="http://www.w3.org/2000/svg">
<g filter="url(#filter0_i)">
<path d="M89.9896 145.99C88.3955 147.584 87.5 149.746 87.5 152V159.5H72.5V152C72.5 145.767 74.9759 139.79 79.383 135.383C83.7901 130.976 89.7674 128.5 96 128.5C102.233 128.5 108.21 130.976 112.617 135.383C117.024 139.79 119.5 145.767 119.5 152V159.5H104.5V152C104.5 149.746 103.604 147.584 102.01 145.99C100.416 144.396 98.2543 143.5 96 143.5C93.7457 143.5 91.5837 144.396 89.9896 145.99Z" fill="#C0E79C" stroke="black"/>
<path d="M169.99 145.99C168.396 147.584 167.5 149.746 167.5 152V159.5H152.5V152C152.5 145.767 154.976 139.79 159.383 135.383C163.79 130.976 169.767 128.5 176 128.5C182.233 128.5 188.21 130.976 192.617 135.383C197.024 139.79 199.5 145.767 199.5 152V159.5H184.5V152C184.5 149.746 183.604 147.584 182.01 145.99C180.416 144.396 178.254 143.5 176 143.5C173.746 143.5 171.584 144.396 169.99 145.99Z" fill="#C0E79C" stroke="black"/>
<path d="M104.5 192V184.5H119.5V192C119.5 196.376 121.238 200.573 124.333 203.667C127.427 206.762 131.624 208.5 136 208.5C140.376 208.5 144.573 206.762 147.667 203.667C150.762 200.573 152.5 196.376 152.5 192V184.5H167.5V192C167.5 200.354 164.181 208.366 158.274 214.274C152.366 220.181 144.354 223.5 136 223.5C127.646 223.5 119.634 220.181 113.726 214.274C107.819 208.366 104.5 200.354 104.5 192Z" fill="#C0E79C" stroke="black"/>
<mask id="path-4-inside-1" fill="white">
<path d="M464 312C463.987 301.395 459.769 291.228 452.27 283.73C444.772 276.231 434.605 272.013 424 272H255.088C244.646 261.769 230.618 256.027 216 256H176V247.2C180.495 245.135 184.826 242.728 188.952 240H264V128C264 94.0523 250.514 61.495 226.51 37.4903C202.505 13.4857 169.948 0 136 0C102.052 0 69.495 13.4857 45.4903 37.4903C21.4857 61.495 8 94.0523 8 128V240H83.048C87.1744 242.728 91.5045 245.135 96 247.2V256H56C41.1531 256.017 26.9191 261.922 16.4207 272.421C5.92236 282.919 0.0169389 297.153 0 312V472C0 474.122 0.842854 476.157 2.34315 477.657C3.84344 479.157 5.87827 480 8 480H456C462.365 480 468.47 477.471 472.971 472.971C477.471 468.47 480 462.365 480 456V432H464V312ZM448 312V432H224V312C224 305.635 226.529 299.53 231.029 295.029C235.53 290.529 241.635 288 248 288H424C430.365 288 436.47 290.529 440.971 295.029C445.471 299.53 448 305.635 448 312ZM56 112H216V160C216 181.217 207.571 201.566 192.569 216.569C177.566 231.571 157.217 240 136 240C114.783 240 94.4344 231.571 79.4315 216.569C64.4285 201.566 56 181.217 56 160V112ZM232 144H240C242.122 144 244.157 144.843 245.657 146.343C247.157 147.843 248 149.878 248 152C248 154.122 247.157 156.157 245.657 157.657C244.157 159.157 242.122 160 240 160H232V144ZM207.352 224C219.483 210.526 227.53 193.877 230.552 176H240C242.732 175.973 245.438 175.476 248 174.528V224H207.352ZM136 16C165.694 16.0318 194.164 27.8419 215.161 48.8391C236.158 69.8363 247.968 98.3055 248 128V129.472C245.438 128.524 242.732 128.027 240 128H232V104C232 101.878 231.157 99.8434 229.657 98.3431C228.157 96.8429 226.122 96 224 96H48C45.8783 96 43.8434 96.8429 42.3431 98.3431C40.8429 99.8434 40 101.878 40 104V128H32C29.2685 128.027 26.5621 128.524 24 129.472V128C24.0318 98.3055 35.8419 69.8363 56.8391 48.8391C77.8363 27.8419 106.306 16.0318 136 16V16ZM40 160H32C29.8783 160 27.8434 159.157 26.3431 157.657C24.8429 156.157 24 154.122 24 152C24 149.878 24.8429 147.843 26.3431 146.343C27.8434 144.843 29.8783 144 32 144H40V160ZM24 174.528C26.5621 175.476 29.2685 175.973 32 176H41.448C44.4699 193.877 52.5166 210.526 64.648 224H24V174.528ZM136 256C144.103 255.956 152.168 254.881 160 252.8V264C160 270.365 157.471 276.47 152.971 280.971C148.47 285.471 142.365 288 136 288C129.635 288 123.53 285.471 119.029 280.971C114.529 276.47 112 270.365 112 264V252.8C119.832 254.881 127.897 255.956 136 256V256ZM16 312C16.0127 301.395 20.2311 291.228 27.7298 283.73C35.2285 276.231 45.3952 272.013 56 272H96.8C98.6361 281.042 103.542 289.172 110.686 295.011C117.83 300.85 126.773 304.04 136 304.04C145.227 304.04 154.17 300.85 161.314 295.011C168.458 289.172 173.364 281.042 175.2 272H216C221.509 272.012 226.956 273.161 232 275.376C224.872 278.487 218.806 283.608 214.544 290.112C210.281 296.617 208.007 304.223 208 312V432H192V456C192.027 458.732 192.524 461.438 193.472 464H80V360H64V464H16V312ZM464 456C464 458.122 463.157 460.157 461.657 461.657C460.157 463.157 458.122 464 456 464H216C213.878 464 211.843 463.157 210.343 461.657C208.843 460.157 208 458.122 208 456V448H464V456Z"/>
</mask>
<path d="M464 312C463.987 301.395 459.769 291.228 452.27 283.73C444.772 276.231 434.605 272.013 424 272H255.088C244.646 261.769 230.618 256.027 216 256H176V247.2C180.495 245.135 184.826 242.728 188.952 240H264V128C264 94.0523 250.514 61.495 226.51 37.4903C202.505 13.4857 169.948 0 136 0C102.052 0 69.495 13.4857 45.4903 37.4903C21.4857 61.495 8 94.0523 8 128V240H83.048C87.1744 242.728 91.5045 245.135 96 247.2V256H56C41.1531 256.017 26.9191 261.922 16.4207 272.421C5.92236 282.919 0.0169389 297.153 0 312V472C0 474.122 0.842854 476.157 2.34315 477.657C3.84344 479.157 5.87827 480 8 480H456C462.365 480 468.47 477.471 472.971 472.971C477.471 468.47 480 462.365 480 456V432H464V312ZM448 312V432H224V312C224 305.635 226.529 299.53 231.029 295.029C235.53 290.529 241.635 288 248 288H424C430.365 288 436.47 290.529 440.971 295.029C445.471 299.53 448 305.635 448 312ZM56 112H216V160C216 181.217 207.571 201.566 192.569 216.569C177.566 231.571 157.217 240 136 240C114.783 240 94.4344 231.571 79.4315 216.569C64.4285 201.566 56 181.217 56 160V112ZM232 144H240C242.122 144 244.157 144.843 245.657 146.343C247.157 147.843 248 149.878 248 152C248 154.122 247.157 156.157 245.657 157.657C244.157 159.157 242.122 160 240 160H232V144ZM207.352 224C219.483 210.526 227.53 193.877 230.552 176H240C242.732 175.973 245.438 175.476 248 174.528V224H207.352ZM136 16C165.694 16.0318 194.164 27.8419 215.161 48.8391C236.158 69.8363 247.968 98.3055 248 128V129.472C245.438 128.524 242.732 128.027 240 128H232V104C232 101.878 231.157 99.8434 229.657 98.3431C228.157 96.8429 226.122 96 224 96H48C45.8783 96 43.8434 96.8429 42.3431 98.3431C40.8429 99.8434 40 101.878 40 104V128H32C29.2685 128.027 26.5621 128.524 24 129.472V128C24.0318 98.3055 35.8419 69.8363 56.8391 48.8391C77.8363 27.8419 106.306 16.0318 136 16V16ZM40 160H32C29.8783 160 27.8434 159.157 26.3431 157.657C24.8429 156.157 24 154.122 24 152C24 149.878 24.8429 147.843 26.3431 146.343C27.8434 144.843 29.8783 144 32 144H40V160ZM24 174.528C26.5621 175.476 29.2685 175.973 32 176H41.448C44.4699 193.877 52.5166 210.526 64.648 224H24V174.528ZM136 256C144.103 255.956 152.168 254.881 160 252.8V264C160 270.365 157.471 276.47 152.971 280.971C148.47 285.471 142.365 288 136 288C129.635 288 123.53 285.471 119.029 280.971C114.529 276.47 112 270.365 112 264V252.8C119.832 254.881 127.897 255.956 136 256V256ZM16 312C16.0127 301.395 20.2311 291.228 27.7298 283.73C35.2285 276.231 45.3952 272.013 56 272H96.8C98.6361 281.042 103.542 289.172 110.686 295.011C117.83 300.85 126.773 304.04 136 304.04C145.227 304.04 154.17 300.85 161.314 295.011C168.458 289.172 173.364 281.042 175.2 272H216C221.509 272.012 226.956 273.161 232 275.376C224.872 278.487 218.806 283.608 214.544 290.112C210.281 296.617 208.007 304.223 208 312V432H192V456C192.027 458.732 192.524 461.438 193.472 464H80V360H64V464H16V312ZM464 456C464 458.122 463.157 460.157 461.657 461.657C460.157 463.157 458.122 464 456 464H216C213.878 464 211.843 463.157 210.343 461.657C208.843 460.157 208 458.122 208 456V448H464V456Z" fill="#C0E79C" stroke="black" stroke-width="2" mask="url(#path-4-inside-1)"/>
<path d="M290.958 360.353L308.949 378.344L298.344 388.949L269.395 360L298.344 331.051L308.949 341.656L290.958 359.646L290.605 360L290.958 360.353Z" fill="#C0E79C" stroke="black"/>
<path d="M373.656 388.949L363.051 378.344L381.042 360.353L381.395 360L381.042 359.646L363.051 341.656L373.656 331.051L402.605 360L373.656 388.949Z" fill="#C0E79C" stroke="black"/>
<path d="M321.043 381.149L336.736 334.097L350.965 338.842L335.273 385.894L321.043 381.149Z" fill="#C0E79C" stroke="black"/>
</g>
<defs>
<filter id="filter0_i" x="0" y="0" width="480" height="484" filterUnits="userSpaceOnUse" color-interpolation-filters="sRGB">
<feFlood flood-opacity="0" result="BackgroundImageFix"/>
<feBlend mode="normal" in="SourceGraphic" in2="BackgroundImageFix" result="shape"/>
<feColorMatrix in="SourceAlpha" type="matrix" values="0 0 0 0 0 0 0 0 0 0 0 0 0 0 0 0 0 0 127 0" result="hardAlpha"/>
<feOffset dy="4"/>
<feGaussianBlur stdDeviation="2"/>
<feComposite in2="hardAlpha" operator="arithmetic" k2="-1" k3="1"/>
<feColorMatrix type="matrix" values="0 0 0 0 0 0 0 0 0 0 0 0 0 0 0 0 0 0 0.25 0"/>
<feBlend mode="normal" in2="shape" result="effect1_innerShadow"/>
</filter>
</defs>
</svg>
