<svg width="523" height="286" viewBox="0 0 523 286" fill="none" xmlns="http://www.w3.org/2000/svg">
<path d="M166.167 24.2395C166.167 21.7655 165.214 19.5745 163.311 17.6725L149.034 3.39655C147.131 1.49355 144.941 0.539551 142.467 0.539551C139.993 0.539551 137.802 1.49455 135.9 3.39655L2.856 136.441C0.95 138.344 0 140.534 0 143.008C0 145.482 0.953 147.672 2.856 149.574L135.899 282.618C137.801 284.524 139.988 285.472 142.466 285.472C144.944 285.472 147.131 284.521 149.033 282.618L163.31 268.35C165.213 266.448 166.166 264.257 166.166 261.78C166.166 259.309 165.213 257.119 163.31 255.217L51.107 143.008L163.311 30.8065C165.217 28.9045 166.167 26.7135 166.167 24.2395Z" fill="#A3A3A3"/>
<path d="M519.614 136.438L386.567 3.39362C384.665 1.49162 382.474 0.536621 380.004 0.536621C377.526 0.536621 375.343 1.49162 373.434 3.39362L359.163 17.6686C357.261 19.5716 356.312 21.7586 356.312 24.2356C356.312 26.7126 357.26 28.9006 359.163 30.8026L471.369 143.007L359.163 255.217C357.261 257.119 356.312 259.31 356.312 261.78C356.312 264.258 357.26 266.448 359.163 268.35L373.434 282.618C375.343 284.524 377.527 285.472 380.004 285.472C382.475 285.472 384.665 284.521 386.567 282.618L519.614 149.575C521.517 147.673 522.468 145.479 522.468 143.005C522.468 140.53 521.517 138.34 519.614 136.438Z" fill="#A3A3A3"/>
</svg>
