<svg width="424" height="480" viewBox="0 0 424 480" fill="none" xmlns="http://www.w3.org/2000/svg">
<g filter="url(#filter0_i)">
<path d="M272.012 103.5H96.0122C94.0231 103.5 92.1154 102.71 90.7089 101.303C89.3024 99.8968 88.5122 97.9891 88.5122 96C88.5122 94.0109 89.3024 92.1032 90.7089 90.6967C92.1154 89.2902 94.0231 88.5 96.0122 88.5H272.012C274.001 88.5 275.909 89.2902 277.316 90.6967C278.722 92.1032 279.512 94.0109 279.512 96C279.512 97.9891 278.722 99.8968 277.316 101.303C275.909 102.71 274.001 103.5 272.012 103.5Z" fill="#C0E79C"/>
<path d="M272.012 103.5H96.0122C94.0231 103.5 92.1154 102.71 90.7089 101.303C89.3024 99.8968 88.5122 97.9891 88.5122 96C88.5122 94.0109 89.3024 92.1032 90.7089 90.6967C92.1154 89.2902 94.0231 88.5 96.0122 88.5H272.012C274.001 88.5 275.909 89.2902 277.316 90.6967C278.722 92.1032 279.512 94.0109 279.512 96C279.512 97.9891 278.722 99.8968 277.316 101.303C275.909 102.71 274.001 103.5 272.012 103.5Z" stroke="#C0E79C"/>
<path d="M272.012 103.5H96.0122C94.0231 103.5 92.1154 102.71 90.7089 101.303C89.3024 99.8968 88.5122 97.9891 88.5122 96C88.5122 94.0109 89.3024 92.1032 90.7089 90.6967C92.1154 89.2902 94.0231 88.5 96.0122 88.5H272.012C274.001 88.5 275.909 89.2902 277.316 90.6967C278.722 92.1032 279.512 94.0109 279.512 96C279.512 97.9891 278.722 99.8968 277.316 101.303C275.909 102.71 274.001 103.5 272.012 103.5Z" stroke="black"/>
<path d="M272.012 151.5H96.0122C94.0231 151.5 92.1154 150.71 90.7089 149.303C89.3024 147.897 88.5122 145.989 88.5122 144C88.5122 142.011 89.3024 140.103 90.7089 138.697C92.1154 137.29 94.0231 136.5 96.0122 136.5H272.012C274.001 136.5 275.909 137.29 277.316 138.697C278.722 140.103 279.512 142.011 279.512 144C279.512 145.989 278.722 147.897 277.316 149.303C275.909 150.71 274.001 151.5 272.012 151.5Z" fill="#C0E79C"/>
<path d="M272.012 151.5H96.0122C94.0231 151.5 92.1154 150.71 90.7089 149.303C89.3024 147.897 88.5122 145.989 88.5122 144C88.5122 142.011 89.3024 140.103 90.7089 138.697C92.1154 137.29 94.0231 136.5 96.0122 136.5H272.012C274.001 136.5 275.909 137.29 277.316 138.697C278.722 140.103 279.512 142.011 279.512 144C279.512 145.989 278.722 147.897 277.316 149.303C275.909 150.71 274.001 151.5 272.012 151.5Z" stroke="#C0E79C"/>
<path d="M272.012 151.5H96.0122C94.0231 151.5 92.1154 150.71 90.7089 149.303C89.3024 147.897 88.5122 145.989 88.5122 144C88.5122 142.011 89.3024 140.103 90.7089 138.697C92.1154 137.29 94.0231 136.5 96.0122 136.5H272.012C274.001 136.5 275.909 137.29 277.316 138.697C278.722 140.103 279.512 142.011 279.512 144C279.512 145.989 278.722 147.897 277.316 149.303C275.909 150.71 274.001 151.5 272.012 151.5Z" stroke="black"/>
<path d="M272.012 199.5H96.0122C94.0231 199.5 92.1154 198.71 90.7089 197.303C89.3024 195.897 88.5122 193.989 88.5122 192C88.5122 190.011 89.3024 188.103 90.7089 186.697C92.1154 185.29 94.0231 184.5 96.0122 184.5H272.012C274.001 184.5 275.909 185.29 277.316 186.697C278.722 188.103 279.512 190.011 279.512 192C279.512 193.989 278.722 195.897 277.316 197.303C275.909 198.71 274.001 199.5 272.012 199.5Z" fill="#C0E79C"/>
<path d="M272.012 199.5H96.0122C94.0231 199.5 92.1154 198.71 90.7089 197.303C89.3024 195.897 88.5122 193.989 88.5122 192C88.5122 190.011 89.3024 188.103 90.7089 186.697C92.1154 185.29 94.0231 184.5 96.0122 184.5H272.012C274.001 184.5 275.909 185.29 277.316 186.697C278.722 188.103 279.512 190.011 279.512 192C279.512 193.989 278.722 195.897 277.316 197.303C275.909 198.71 274.001 199.5 272.012 199.5Z" stroke="#C0E79C"/>
<path d="M272.012 199.5H96.0122C94.0231 199.5 92.1154 198.71 90.7089 197.303C89.3024 195.897 88.5122 193.989 88.5122 192C88.5122 190.011 89.3024 188.103 90.7089 186.697C92.1154 185.29 94.0231 184.5 96.0122 184.5H272.012C274.001 184.5 275.909 185.29 277.316 186.697C278.722 188.103 279.512 190.011 279.512 192C279.512 193.989 278.722 195.897 277.316 197.303C275.909 198.71 274.001 199.5 272.012 199.5Z" stroke="black"/>
<path d="M272.012 247.5H96.0122C94.0231 247.5 92.1154 246.71 90.7089 245.303C89.3024 243.897 88.5122 241.989 88.5122 240C88.5122 238.011 89.3024 236.103 90.7089 234.697C92.1154 233.29 94.0231 232.5 96.0122 232.5H272.012C274.001 232.5 275.909 233.29 277.316 234.697C278.722 236.103 279.512 238.011 279.512 240C279.512 241.989 278.722 243.897 277.316 245.303C275.909 246.71 274.001 247.5 272.012 247.5Z" fill="#C0E79C"/>
<path d="M272.012 247.5H96.0122C94.0231 247.5 92.1154 246.71 90.7089 245.303C89.3024 243.897 88.5122 241.989 88.5122 240C88.5122 238.011 89.3024 236.103 90.7089 234.697C92.1154 233.29 94.0231 232.5 96.0122 232.5H272.012C274.001 232.5 275.909 233.29 277.316 234.697C278.722 236.103 279.512 238.011 279.512 240C279.512 241.989 278.722 243.897 277.316 245.303C275.909 246.71 274.001 247.5 272.012 247.5Z" stroke="#C0E79C"/>
<path d="M272.012 247.5H96.0122C94.0231 247.5 92.1154 246.71 90.7089 245.303C89.3024 243.897 88.5122 241.989 88.5122 240C88.5122 238.011 89.3024 236.103 90.7089 234.697C92.1154 233.29 94.0231 232.5 96.0122 232.5H272.012C274.001 232.5 275.909 233.29 277.316 234.697C278.722 236.103 279.512 238.011 279.512 240C279.512 241.989 278.722 243.897 277.316 245.303C275.909 246.71 274.001 247.5 272.012 247.5Z" stroke="black"/>
<path d="M160.012 295.5H96.0122C94.0231 295.5 92.1154 294.71 90.7089 293.303C89.3024 291.897 88.5122 289.989 88.5122 288C88.5122 286.011 89.3024 284.103 90.7089 282.697C92.1154 281.29 94.0231 280.5 96.0122 280.5H160.012C162.001 280.5 163.909 281.29 165.316 282.697C166.722 284.103 167.512 286.011 167.512 288C167.512 289.989 166.722 291.897 165.316 293.303C163.909 294.71 162.001 295.5 160.012 295.5Z" fill="#C0E79C"/>
<path d="M160.012 295.5H96.0122C94.0231 295.5 92.1154 294.71 90.7089 293.303C89.3024 291.897 88.5122 289.989 88.5122 288C88.5122 286.011 89.3024 284.103 90.7089 282.697C92.1154 281.29 94.0231 280.5 96.0122 280.5H160.012C162.001 280.5 163.909 281.29 165.316 282.697C166.722 284.103 167.512 286.011 167.512 288C167.512 289.989 166.722 291.897 165.316 293.303C163.909 294.71 162.001 295.5 160.012 295.5Z" stroke="#C0E79C"/>
<path d="M160.012 295.5H96.0122C94.0231 295.5 92.1154 294.71 90.7089 293.303C89.3024 291.897 88.5122 289.989 88.5122 288C88.5122 286.011 89.3024 284.103 90.7089 282.697C92.1154 281.29 94.0231 280.5 96.0122 280.5H160.012C162.001 280.5 163.909 281.29 165.316 282.697C166.722 284.103 167.512 286.011 167.512 288C167.512 289.989 166.722 291.897 165.316 293.303C163.909 294.71 162.001 295.5 160.012 295.5Z" stroke="black"/>
<mask id="path-6-inside-1" fill="white">
<path d="M412.144 189.015C406.651 185.803 400.108 184.902 393.951 186.509C387.794 188.115 382.526 192.099 379.303 197.586L360.012 230.5V32C360.012 29.8783 359.169 27.8434 357.669 26.3431C356.169 24.8429 354.134 24 352.012 24H291.326C291.326 24 267.288 -0.48 266.326 0.344C265.576 0.116222 264.796 0.000309167 264.012 0H32.0121C29.8904 0 27.8556 0.842854 26.3553 2.34315C24.855 3.84344 24.0121 5.87827 24.0121 8V33.013C17.1404 34.7844 11.0524 38.7898 6.70562 44.3991C2.35887 50.0085 0 56.9036 0 64C0 71.0964 2.35887 77.9915 6.70562 83.6009C11.0524 89.2102 17.1404 93.2156 24.0121 94.987V113.013C17.1404 114.784 11.0524 118.79 6.70562 124.399C2.35887 130.008 0 136.904 0 144C0 151.096 2.35887 157.992 6.70562 163.601C11.0524 169.21 17.1404 173.216 24.0121 174.987V193.013C17.1404 194.784 11.0524 198.79 6.70562 204.399C2.35887 210.008 0 216.904 0 224C0 231.096 2.35887 237.992 6.70562 243.601C11.0524 249.21 17.1404 253.216 24.0121 254.987V265.013C17.1404 266.784 11.0524 270.79 6.70562 276.399C2.35887 282.008 0 288.904 0 296C0 303.096 2.35887 309.992 6.70562 315.601C11.0524 321.21 17.1404 325.216 24.0121 326.987V376C24.0121 378.122 24.855 380.157 26.3553 381.657C27.8556 383.157 29.8904 384 32.0121 384H40.0121V408C40.0121 410.122 40.855 412.157 42.3553 413.657C43.8556 415.157 45.8904 416 48.0121 416H251.304L245.822 425.354C245.331 426.193 244.999 427.116 244.841 428.075C244.833 428.121 244.82 428.16 244.813 428.207L244.793 428.338V428.368L238.393 470.808C238.155 472.389 238.396 474.005 239.085 475.448C239.774 476.891 240.88 478.094 242.259 478.902C243.638 479.711 245.229 480.087 246.824 479.983C248.42 479.879 249.947 479.3 251.21 478.319L285.238 451.9C287.418 450.207 288.483 449.171 288.314 447.781L306.938 416H352.012C354.134 416 356.169 415.157 357.669 413.657C359.169 412.157 360.012 410.122 360.012 408V325.438L420.712 221.855C423.923 216.362 424.824 209.82 423.218 203.663C421.612 197.507 417.629 192.239 412.144 189.015V189.015ZM397.989 201.98C399.52 201.58 401.135 201.644 402.63 202.162C404.125 202.681 405.433 203.631 406.388 204.892C407.343 206.154 407.902 207.67 407.995 209.25C408.089 210.829 407.711 212.401 406.911 213.766L402.866 220.666L389.066 212.576L393.112 205.676C393.64 204.768 394.343 203.974 395.18 203.34C396.018 202.705 396.972 202.243 397.989 201.98ZM277.474 434.632L263.674 426.542L368.838 247.089L382.638 255.179L277.474 434.632ZM272.012 27.314L300.698 56H272.012V27.314ZM376.928 233.284L380.972 226.384L394.777 234.474L390.732 241.374L376.928 233.284ZM344.012 40V256C344.013 256.519 344.064 257.037 344.164 257.546L328.012 285.108V64C328.013 62.9511 327.807 61.9122 327.407 60.9429C327.006 59.9736 326.418 59.0928 325.676 58.351L325.669 58.343L307.326 40H344.012ZM40.0121 16H256.012V64C256.012 66.1217 256.855 68.1566 258.355 69.6569C259.856 71.1571 261.89 72 264.012 72H312.012V312.41L279.434 368H40.0121V326.988C45.5506 325.562 50.6051 322.676 54.6488 318.632C58.6926 314.587 61.5776 309.533 63.0031 303.994C63.532 301.939 63.2227 299.757 62.1432 297.93C61.0637 296.103 59.3026 294.779 57.2471 294.25C56.2294 293.988 55.17 293.929 54.1296 294.077C53.0891 294.224 52.0879 294.575 51.183 295.11C49.3557 296.189 48.032 297.951 47.5031 300.006C46.973 302.063 46.0373 303.993 44.751 305.684C43.4646 307.374 41.8534 308.791 40.0121 309.85V254.988C45.5506 253.562 50.6051 250.676 54.6488 246.632C58.6926 242.587 61.5776 237.533 63.0031 231.994C63.532 229.939 63.2227 227.757 62.1432 225.93C61.0637 224.103 59.3026 222.779 57.2471 222.25C55.1917 221.721 53.0104 222.03 51.183 223.11C49.3557 224.189 48.032 225.951 47.5031 228.006C46.973 230.063 46.0373 231.993 44.751 233.684C43.4646 235.374 41.8534 236.791 40.0121 237.85V174.988C45.5506 173.562 50.6051 170.676 54.6488 166.632C58.6926 162.587 61.5776 157.533 63.0031 151.994C63.532 149.939 63.2227 147.757 62.1432 145.93C61.0637 144.103 59.3026 142.779 57.2471 142.25C55.1917 141.721 53.0104 142.03 51.183 143.11C49.3557 144.189 48.032 145.951 47.5031 148.006C46.973 150.063 46.0373 151.993 44.751 153.684C43.4646 155.374 41.8534 156.791 40.0121 157.85V94.988C45.5506 93.5617 50.6051 90.6761 54.6488 86.6318C58.6926 82.5875 61.5776 77.5326 63.0031 71.994C63.532 69.9386 63.2227 67.7572 62.1432 65.9299C61.0637 64.1025 59.3026 62.7788 57.2471 62.25C55.1917 61.7212 53.0104 62.0305 51.183 63.11C49.3557 64.1894 48.032 65.9506 47.5031 68.006C46.973 70.063 46.0373 71.9934 44.751 73.6839C43.4646 75.3743 41.8534 76.7908 40.0121 77.85V16ZM16.0121 64C16.0159 61.195 16.757 58.4404 18.1611 56.0121C19.5652 53.5839 21.583 51.5675 24.0121 50.165V77.835C21.583 76.4325 19.5652 74.4161 18.1611 71.9879C16.757 69.5596 16.0159 66.805 16.0121 64V64ZM16.0121 144C16.0159 141.195 16.757 138.44 18.1611 136.012C19.5652 133.584 21.583 131.567 24.0121 130.165V157.835C21.583 156.433 19.5652 154.416 18.1611 151.988C16.757 149.56 16.0159 146.805 16.0121 144V144ZM16.0121 224C16.0159 221.195 16.757 218.44 18.1611 216.012C19.5652 213.584 21.583 211.567 24.0121 210.165V237.835C21.583 236.433 19.5652 234.416 18.1611 231.988C16.757 229.56 16.0159 226.805 16.0121 224V224ZM16.0121 296C16.0159 293.195 16.757 290.44 18.1611 288.012C19.5652 285.584 21.583 283.567 24.0121 282.165V309.835C21.583 308.433 19.5652 306.416 18.1611 303.988C16.757 301.56 16.0159 298.805 16.0121 296V296ZM56.0121 400V384H270.057L260.68 400H56.0121ZM258.873 442.276L266.092 446.507L257.192 453.415L258.873 442.276ZM344.012 400H316.312L344.012 352.739V400Z"/>
</mask>
<path d="M412.144 189.015C406.651 185.803 400.108 184.902 393.951 186.509C387.794 188.115 382.526 192.099 379.303 197.586L360.012 230.5V32C360.012 29.8783 359.169 27.8434 357.669 26.3431C356.169 24.8429 354.134 24 352.012 24H291.326C291.326 24 267.288 -0.48 266.326 0.344C265.576 0.116222 264.796 0.000309167 264.012 0H32.0121C29.8904 0 27.8556 0.842854 26.3553 2.34315C24.855 3.84344 24.0121 5.87827 24.0121 8V33.013C17.1404 34.7844 11.0524 38.7898 6.70562 44.3991C2.35887 50.0085 0 56.9036 0 64C0 71.0964 2.35887 77.9915 6.70562 83.6009C11.0524 89.2102 17.1404 93.2156 24.0121 94.987V113.013C17.1404 114.784 11.0524 118.79 6.70562 124.399C2.35887 130.008 0 136.904 0 144C0 151.096 2.35887 157.992 6.70562 163.601C11.0524 169.21 17.1404 173.216 24.0121 174.987V193.013C17.1404 194.784 11.0524 198.79 6.70562 204.399C2.35887 210.008 0 216.904 0 224C0 231.096 2.35887 237.992 6.70562 243.601C11.0524 249.21 17.1404 253.216 24.0121 254.987V265.013C17.1404 266.784 11.0524 270.79 6.70562 276.399C2.35887 282.008 0 288.904 0 296C0 303.096 2.35887 309.992 6.70562 315.601C11.0524 321.21 17.1404 325.216 24.0121 326.987V376C24.0121 378.122 24.855 380.157 26.3553 381.657C27.8556 383.157 29.8904 384 32.0121 384H40.0121V408C40.0121 410.122 40.855 412.157 42.3553 413.657C43.8556 415.157 45.8904 416 48.0121 416H251.304L245.822 425.354C245.331 426.193 244.999 427.116 244.841 428.075C244.833 428.121 244.82 428.16 244.813 428.207L244.793 428.338V428.368L238.393 470.808C238.155 472.389 238.396 474.005 239.085 475.448C239.774 476.891 240.88 478.094 242.259 478.902C243.638 479.711 245.229 480.087 246.824 479.983C248.42 479.879 249.947 479.3 251.21 478.319L285.238 451.9C287.418 450.207 288.483 449.171 288.314 447.781L306.938 416H352.012C354.134 416 356.169 415.157 357.669 413.657C359.169 412.157 360.012 410.122 360.012 408V325.438L420.712 221.855C423.923 216.362 424.824 209.82 423.218 203.663C421.612 197.507 417.629 192.239 412.144 189.015V189.015ZM397.989 201.98C399.52 201.58 401.135 201.644 402.63 202.162C404.125 202.681 405.433 203.631 406.388 204.892C407.343 206.154 407.902 207.67 407.995 209.25C408.089 210.829 407.711 212.401 406.911 213.766L402.866 220.666L389.066 212.576L393.112 205.676C393.64 204.768 394.343 203.974 395.18 203.34C396.018 202.705 396.972 202.243 397.989 201.98ZM277.474 434.632L263.674 426.542L368.838 247.089L382.638 255.179L277.474 434.632ZM272.012 27.314L300.698 56H272.012V27.314ZM376.928 233.284L380.972 226.384L394.777 234.474L390.732 241.374L376.928 233.284ZM344.012 40V256C344.013 256.519 344.064 257.037 344.164 257.546L328.012 285.108V64C328.013 62.9511 327.807 61.9122 327.407 60.9429C327.006 59.9736 326.418 59.0928 325.676 58.351L325.669 58.343L307.326 40H344.012ZM40.0121 16H256.012V64C256.012 66.1217 256.855 68.1566 258.355 69.6569C259.856 71.1571 261.89 72 264.012 72H312.012V312.41L279.434 368H40.0121V326.988C45.5506 325.562 50.6051 322.676 54.6488 318.632C58.6926 314.587 61.5776 309.533 63.0031 303.994C63.532 301.939 63.2227 299.757 62.1432 297.93C61.0637 296.103 59.3026 294.779 57.2471 294.25C56.2294 293.988 55.17 293.929 54.1296 294.077C53.0891 294.224 52.0879 294.575 51.183 295.11C49.3557 296.189 48.032 297.951 47.5031 300.006C46.973 302.063 46.0373 303.993 44.751 305.684C43.4646 307.374 41.8534 308.791 40.0121 309.85V254.988C45.5506 253.562 50.6051 250.676 54.6488 246.632C58.6926 242.587 61.5776 237.533 63.0031 231.994C63.532 229.939 63.2227 227.757 62.1432 225.93C61.0637 224.103 59.3026 222.779 57.2471 222.25C55.1917 221.721 53.0104 222.03 51.183 223.11C49.3557 224.189 48.032 225.951 47.5031 228.006C46.973 230.063 46.0373 231.993 44.751 233.684C43.4646 235.374 41.8534 236.791 40.0121 237.85V174.988C45.5506 173.562 50.6051 170.676 54.6488 166.632C58.6926 162.587 61.5776 157.533 63.0031 151.994C63.532 149.939 63.2227 147.757 62.1432 145.93C61.0637 144.103 59.3026 142.779 57.2471 142.25C55.1917 141.721 53.0104 142.03 51.183 143.11C49.3557 144.189 48.032 145.951 47.5031 148.006C46.973 150.063 46.0373 151.993 44.751 153.684C43.4646 155.374 41.8534 156.791 40.0121 157.85V94.988C45.5506 93.5617 50.6051 90.6761 54.6488 86.6318C58.6926 82.5875 61.5776 77.5326 63.0031 71.994C63.532 69.9386 63.2227 67.7572 62.1432 65.9299C61.0637 64.1025 59.3026 62.7788 57.2471 62.25C55.1917 61.7212 53.0104 62.0305 51.183 63.11C49.3557 64.1894 48.032 65.9506 47.5031 68.006C46.973 70.063 46.0373 71.9934 44.751 73.6839C43.4646 75.3743 41.8534 76.7908 40.0121 77.85V16ZM16.0121 64C16.0159 61.195 16.757 58.4404 18.1611 56.0121C19.5652 53.5839 21.583 51.5675 24.0121 50.165V77.835C21.583 76.4325 19.5652 74.4161 18.1611 71.9879C16.757 69.5596 16.0159 66.805 16.0121 64V64ZM16.0121 144C16.0159 141.195 16.757 138.44 18.1611 136.012C19.5652 133.584 21.583 131.567 24.0121 130.165V157.835C21.583 156.433 19.5652 154.416 18.1611 151.988C16.757 149.56 16.0159 146.805 16.0121 144V144ZM16.0121 224C16.0159 221.195 16.757 218.44 18.1611 216.012C19.5652 213.584 21.583 211.567 24.0121 210.165V237.835C21.583 236.433 19.5652 234.416 18.1611 231.988C16.757 229.56 16.0159 226.805 16.0121 224V224ZM16.0121 296C16.0159 293.195 16.757 290.44 18.1611 288.012C19.5652 285.584 21.583 283.567 24.0121 282.165V309.835C21.583 308.433 19.5652 306.416 18.1611 303.988C16.757 301.56 16.0159 298.805 16.0121 296V296ZM56.0121 400V384H270.057L260.68 400H56.0121ZM258.873 442.276L266.092 446.507L257.192 453.415L258.873 442.276ZM344.012 400H316.312L344.012 352.739V400Z" fill="#C0E79C"/>
<path d="M412.144 189.015C406.651 185.803 400.108 184.902 393.951 186.509C387.794 188.115 382.526 192.099 379.303 197.586L360.012 230.5V32C360.012 29.8783 359.169 27.8434 357.669 26.3431C356.169 24.8429 354.134 24 352.012 24H291.326C291.326 24 267.288 -0.48 266.326 0.344C265.576 0.116222 264.796 0.000309167 264.012 0H32.0121C29.8904 0 27.8556 0.842854 26.3553 2.34315C24.855 3.84344 24.0121 5.87827 24.0121 8V33.013C17.1404 34.7844 11.0524 38.7898 6.70562 44.3991C2.35887 50.0085 0 56.9036 0 64C0 71.0964 2.35887 77.9915 6.70562 83.6009C11.0524 89.2102 17.1404 93.2156 24.0121 94.987V113.013C17.1404 114.784 11.0524 118.79 6.70562 124.399C2.35887 130.008 0 136.904 0 144C0 151.096 2.35887 157.992 6.70562 163.601C11.0524 169.21 17.1404 173.216 24.0121 174.987V193.013C17.1404 194.784 11.0524 198.79 6.70562 204.399C2.35887 210.008 0 216.904 0 224C0 231.096 2.35887 237.992 6.70562 243.601C11.0524 249.21 17.1404 253.216 24.0121 254.987V265.013C17.1404 266.784 11.0524 270.79 6.70562 276.399C2.35887 282.008 0 288.904 0 296C0 303.096 2.35887 309.992 6.70562 315.601C11.0524 321.21 17.1404 325.216 24.0121 326.987V376C24.0121 378.122 24.855 380.157 26.3553 381.657C27.8556 383.157 29.8904 384 32.0121 384H40.0121V408C40.0121 410.122 40.855 412.157 42.3553 413.657C43.8556 415.157 45.8904 416 48.0121 416H251.304L245.822 425.354C245.331 426.193 244.999 427.116 244.841 428.075C244.833 428.121 244.82 428.16 244.813 428.207L244.793 428.338V428.368L238.393 470.808C238.155 472.389 238.396 474.005 239.085 475.448C239.774 476.891 240.88 478.094 242.259 478.902C243.638 479.711 245.229 480.087 246.824 479.983C248.42 479.879 249.947 479.3 251.21 478.319L285.238 451.9C287.418 450.207 288.483 449.171 288.314 447.781L306.938 416H352.012C354.134 416 356.169 415.157 357.669 413.657C359.169 412.157 360.012 410.122 360.012 408V325.438L420.712 221.855C423.923 216.362 424.824 209.82 423.218 203.663C421.612 197.507 417.629 192.239 412.144 189.015V189.015ZM397.989 201.98C399.52 201.58 401.135 201.644 402.63 202.162C404.125 202.681 405.433 203.631 406.388 204.892C407.343 206.154 407.902 207.67 407.995 209.25C408.089 210.829 407.711 212.401 406.911 213.766L402.866 220.666L389.066 212.576L393.112 205.676C393.64 204.768 394.343 203.974 395.18 203.34C396.018 202.705 396.972 202.243 397.989 201.98ZM277.474 434.632L263.674 426.542L368.838 247.089L382.638 255.179L277.474 434.632ZM272.012 27.314L300.698 56H272.012V27.314ZM376.928 233.284L380.972 226.384L394.777 234.474L390.732 241.374L376.928 233.284ZM344.012 40V256C344.013 256.519 344.064 257.037 344.164 257.546L328.012 285.108V64C328.013 62.9511 327.807 61.9122 327.407 60.9429C327.006 59.9736 326.418 59.0928 325.676 58.351L325.669 58.343L307.326 40H344.012ZM40.0121 16H256.012V64C256.012 66.1217 256.855 68.1566 258.355 69.6569C259.856 71.1571 261.89 72 264.012 72H312.012V312.41L279.434 368H40.0121V326.988C45.5506 325.562 50.6051 322.676 54.6488 318.632C58.6926 314.587 61.5776 309.533 63.0031 303.994C63.532 301.939 63.2227 299.757 62.1432 297.93C61.0637 296.103 59.3026 294.779 57.2471 294.25C56.2294 293.988 55.17 293.929 54.1296 294.077C53.0891 294.224 52.0879 294.575 51.183 295.11C49.3557 296.189 48.032 297.951 47.5031 300.006C46.973 302.063 46.0373 303.993 44.751 305.684C43.4646 307.374 41.8534 308.791 40.0121 309.85V254.988C45.5506 253.562 50.6051 250.676 54.6488 246.632C58.6926 242.587 61.5776 237.533 63.0031 231.994C63.532 229.939 63.2227 227.757 62.1432 225.93C61.0637 224.103 59.3026 222.779 57.2471 222.25C55.1917 221.721 53.0104 222.03 51.183 223.11C49.3557 224.189 48.032 225.951 47.5031 228.006C46.973 230.063 46.0373 231.993 44.751 233.684C43.4646 235.374 41.8534 236.791 40.0121 237.85V174.988C45.5506 173.562 50.6051 170.676 54.6488 166.632C58.6926 162.587 61.5776 157.533 63.0031 151.994C63.532 149.939 63.2227 147.757 62.1432 145.93C61.0637 144.103 59.3026 142.779 57.2471 142.25C55.1917 141.721 53.0104 142.03 51.183 143.11C49.3557 144.189 48.032 145.951 47.5031 148.006C46.973 150.063 46.0373 151.993 44.751 153.684C43.4646 155.374 41.8534 156.791 40.0121 157.85V94.988C45.5506 93.5617 50.6051 90.6761 54.6488 86.6318C58.6926 82.5875 61.5776 77.5326 63.0031 71.994C63.532 69.9386 63.2227 67.7572 62.1432 65.9299C61.0637 64.1025 59.3026 62.7788 57.2471 62.25C55.1917 61.7212 53.0104 62.0305 51.183 63.11C49.3557 64.1894 48.032 65.9506 47.5031 68.006C46.973 70.063 46.0373 71.9934 44.751 73.6839C43.4646 75.3743 41.8534 76.7908 40.0121 77.85V16ZM16.0121 64C16.0159 61.195 16.757 58.4404 18.1611 56.0121C19.5652 53.5839 21.583 51.5675 24.0121 50.165V77.835C21.583 76.4325 19.5652 74.4161 18.1611 71.9879C16.757 69.5596 16.0159 66.805 16.0121 64V64ZM16.0121 144C16.0159 141.195 16.757 138.44 18.1611 136.012C19.5652 133.584 21.583 131.567 24.0121 130.165V157.835C21.583 156.433 19.5652 154.416 18.1611 151.988C16.757 149.56 16.0159 146.805 16.0121 144V144ZM16.0121 224C16.0159 221.195 16.757 218.44 18.1611 216.012C19.5652 213.584 21.583 211.567 24.0121 210.165V237.835C21.583 236.433 19.5652 234.416 18.1611 231.988C16.757 229.56 16.0159 226.805 16.0121 224V224ZM16.0121 296C16.0159 293.195 16.757 290.44 18.1611 288.012C19.5652 285.584 21.583 283.567 24.0121 282.165V309.835C21.583 308.433 19.5652 306.416 18.1611 303.988C16.757 301.56 16.0159 298.805 16.0121 296V296ZM56.0121 400V384H270.057L260.68 400H56.0121ZM258.873 442.276L266.092 446.507L257.192 453.415L258.873 442.276ZM344.012 400H316.312L344.012 352.739V400Z" stroke="#C0E79C" stroke-width="2" mask="url(#path-6-inside-1)"/>
<path d="M412.144 189.015C406.651 185.803 400.108 184.902 393.951 186.509C387.794 188.115 382.526 192.099 379.303 197.586L360.012 230.5V32C360.012 29.8783 359.169 27.8434 357.669 26.3431C356.169 24.8429 354.134 24 352.012 24H291.326C291.326 24 267.288 -0.48 266.326 0.344C265.576 0.116222 264.796 0.000309167 264.012 0H32.0121C29.8904 0 27.8556 0.842854 26.3553 2.34315C24.855 3.84344 24.0121 5.87827 24.0121 8V33.013C17.1404 34.7844 11.0524 38.7898 6.70562 44.3991C2.35887 50.0085 0 56.9036 0 64C0 71.0964 2.35887 77.9915 6.70562 83.6009C11.0524 89.2102 17.1404 93.2156 24.0121 94.987V113.013C17.1404 114.784 11.0524 118.79 6.70562 124.399C2.35887 130.008 0 136.904 0 144C0 151.096 2.35887 157.992 6.70562 163.601C11.0524 169.21 17.1404 173.216 24.0121 174.987V193.013C17.1404 194.784 11.0524 198.79 6.70562 204.399C2.35887 210.008 0 216.904 0 224C0 231.096 2.35887 237.992 6.70562 243.601C11.0524 249.21 17.1404 253.216 24.0121 254.987V265.013C17.1404 266.784 11.0524 270.79 6.70562 276.399C2.35887 282.008 0 288.904 0 296C0 303.096 2.35887 309.992 6.70562 315.601C11.0524 321.21 17.1404 325.216 24.0121 326.987V376C24.0121 378.122 24.855 380.157 26.3553 381.657C27.8556 383.157 29.8904 384 32.0121 384H40.0121V408C40.0121 410.122 40.855 412.157 42.3553 413.657C43.8556 415.157 45.8904 416 48.0121 416H251.304L245.822 425.354C245.331 426.193 244.999 427.116 244.841 428.075C244.833 428.121 244.82 428.16 244.813 428.207L244.793 428.338V428.368L238.393 470.808C238.155 472.389 238.396 474.005 239.085 475.448C239.774 476.891 240.88 478.094 242.259 478.902C243.638 479.711 245.229 480.087 246.824 479.983C248.42 479.879 249.947 479.3 251.21 478.319L285.238 451.9C287.418 450.207 288.483 449.171 288.314 447.781L306.938 416H352.012C354.134 416 356.169 415.157 357.669 413.657C359.169 412.157 360.012 410.122 360.012 408V325.438L420.712 221.855C423.923 216.362 424.824 209.82 423.218 203.663C421.612 197.507 417.629 192.239 412.144 189.015V189.015ZM397.989 201.98C399.52 201.58 401.135 201.644 402.63 202.162C404.125 202.681 405.433 203.631 406.388 204.892C407.343 206.154 407.902 207.67 407.995 209.25C408.089 210.829 407.711 212.401 406.911 213.766L402.866 220.666L389.066 212.576L393.112 205.676C393.64 204.768 394.343 203.974 395.18 203.34C396.018 202.705 396.972 202.243 397.989 201.98ZM277.474 434.632L263.674 426.542L368.838 247.089L382.638 255.179L277.474 434.632ZM272.012 27.314L300.698 56H272.012V27.314ZM376.928 233.284L380.972 226.384L394.777 234.474L390.732 241.374L376.928 233.284ZM344.012 40V256C344.013 256.519 344.064 257.037 344.164 257.546L328.012 285.108V64C328.013 62.9511 327.807 61.9122 327.407 60.9429C327.006 59.9736 326.418 59.0928 325.676 58.351L325.669 58.343L307.326 40H344.012ZM40.0121 16H256.012V64C256.012 66.1217 256.855 68.1566 258.355 69.6569C259.856 71.1571 261.89 72 264.012 72H312.012V312.41L279.434 368H40.0121V326.988C45.5506 325.562 50.6051 322.676 54.6488 318.632C58.6926 314.587 61.5776 309.533 63.0031 303.994C63.532 301.939 63.2227 299.757 62.1432 297.93C61.0637 296.103 59.3026 294.779 57.2471 294.25C56.2294 293.988 55.17 293.929 54.1296 294.077C53.0891 294.224 52.0879 294.575 51.183 295.11C49.3557 296.189 48.032 297.951 47.5031 300.006C46.973 302.063 46.0373 303.993 44.751 305.684C43.4646 307.374 41.8534 308.791 40.0121 309.85V254.988C45.5506 253.562 50.6051 250.676 54.6488 246.632C58.6926 242.587 61.5776 237.533 63.0031 231.994C63.532 229.939 63.2227 227.757 62.1432 225.93C61.0637 224.103 59.3026 222.779 57.2471 222.25C55.1917 221.721 53.0104 222.03 51.183 223.11C49.3557 224.189 48.032 225.951 47.5031 228.006C46.973 230.063 46.0373 231.993 44.751 233.684C43.4646 235.374 41.8534 236.791 40.0121 237.85V174.988C45.5506 173.562 50.6051 170.676 54.6488 166.632C58.6926 162.587 61.5776 157.533 63.0031 151.994C63.532 149.939 63.2227 147.757 62.1432 145.93C61.0637 144.103 59.3026 142.779 57.2471 142.25C55.1917 141.721 53.0104 142.03 51.183 143.11C49.3557 144.189 48.032 145.951 47.5031 148.006C46.973 150.063 46.0373 151.993 44.751 153.684C43.4646 155.374 41.8534 156.791 40.0121 157.85V94.988C45.5506 93.5617 50.6051 90.6761 54.6488 86.6318C58.6926 82.5875 61.5776 77.5326 63.0031 71.994C63.532 69.9386 63.2227 67.7572 62.1432 65.9299C61.0637 64.1025 59.3026 62.7788 57.2471 62.25C55.1917 61.7212 53.0104 62.0305 51.183 63.11C49.3557 64.1894 48.032 65.9506 47.5031 68.006C46.973 70.063 46.0373 71.9934 44.751 73.6839C43.4646 75.3743 41.8534 76.7908 40.0121 77.85V16ZM16.0121 64C16.0159 61.195 16.757 58.4404 18.1611 56.0121C19.5652 53.5839 21.583 51.5675 24.0121 50.165V77.835C21.583 76.4325 19.5652 74.4161 18.1611 71.9879C16.757 69.5596 16.0159 66.805 16.0121 64V64ZM16.0121 144C16.0159 141.195 16.757 138.44 18.1611 136.012C19.5652 133.584 21.583 131.567 24.0121 130.165V157.835C21.583 156.433 19.5652 154.416 18.1611 151.988C16.757 149.56 16.0159 146.805 16.0121 144V144ZM16.0121 224C16.0159 221.195 16.757 218.44 18.1611 216.012C19.5652 213.584 21.583 211.567 24.0121 210.165V237.835C21.583 236.433 19.5652 234.416 18.1611 231.988C16.757 229.56 16.0159 226.805 16.0121 224V224ZM16.0121 296C16.0159 293.195 16.757 290.44 18.1611 288.012C19.5652 285.584 21.583 283.567 24.0121 282.165V309.835C21.583 308.433 19.5652 306.416 18.1611 303.988C16.757 301.56 16.0159 298.805 16.0121 296V296ZM56.0121 400V384H270.057L260.68 400H56.0121ZM258.873 442.276L266.092 446.507L257.192 453.415L258.873 442.276ZM344.012 400H316.312L344.012 352.739V400Z" stroke="black" stroke-width="2" mask="url(#path-6-inside-1)"/>
</g>
<defs>
<filter id="filter0_i" x="0" y="0" width="423.997" height="484" filterUnits="userSpaceOnUse" color-interpolation-filters="sRGB">
<feFlood flood-opacity="0" result="BackgroundImageFix"/>
<feBlend mode="normal" in="SourceGraphic" in2="BackgroundImageFix" result="shape"/>
<feColorMatrix in="SourceAlpha" type="matrix" values="0 0 0 0 0 0 0 0 0 0 0 0 0 0 0 0 0 0 127 0" result="hardAlpha"/>
<feOffset dy="4"/>
<feGaussianBlur stdDeviation="2"/>
<feComposite in2="hardAlpha" operator="arithmetic" k2="-1" k3="1"/>
<feColorMatrix type="matrix" values="0 0 0 0 0 0 0 0 0 0 0 0 0 0 0 0 0 0 0.25 0"/>
<feBlend mode="normal" in2="shape" result="effect1_innerShadow"/>
</filter>
</defs>
</svg>
