<svg width="287" height="320" viewBox="0 0 287 320" fill="none" xmlns="http://www.w3.org/2000/svg">
<rect width="287" height="320" rx="16" fill="#212528"/>
<path d="M27.9906 65.7876C22.1945 65.7853 17.5 70.4774 17.5 76.2688C17.5 80.8485 20.4367 84.7415 24.5266 86.1712C25.0773 86.3095 24.993 85.9181 24.993 85.6509V83.8345C21.8125 84.2071 21.6836 82.1024 21.4703 81.7509C21.0391 81.0149 20.0195 80.8274 20.3242 80.4759C21.0484 80.1032 21.7867 80.5696 22.6422 81.8329C23.2609 82.7493 24.468 82.5946 25.0797 82.4423C25.2133 81.8915 25.4992 81.3993 25.893 81.0173C22.5977 80.4267 21.2242 78.4157 21.2242 76.0251C21.2242 74.8649 21.6062 73.7985 22.3562 72.9384C21.8781 71.5204 22.4008 70.3063 22.4711 70.1259C23.8328 70.004 25.2484 71.1009 25.3586 71.1876C26.132 70.979 27.0156 70.8688 28.0047 70.8688C28.9984 70.8688 29.8844 70.9837 30.6648 71.1946C30.9297 70.9931 32.2422 70.0509 33.5078 70.1657C33.5758 70.3462 34.0867 71.5321 33.6367 72.9313C34.3961 73.7938 34.7828 74.8696 34.7828 76.0321C34.7828 78.4274 33.4 80.4407 30.0953 81.022C30.3784 81.3003 30.6031 81.6323 30.7564 81.9985C30.9098 82.3647 30.9886 82.7578 30.9883 83.1548V85.7915C31.007 86.0024 30.9883 86.211 31.3398 86.211C35.4906 84.8118 38.4789 80.8907 38.4789 76.2712C38.4789 70.4774 33.782 65.7876 27.9906 65.7876Z" fill="white"/>
<path d="M0 16C0 7.16344 7.16344 0 16 0H271C279.837 0 287 7.16344 287 16V40H0V16Z" fill="#1E1E1E"/>
<circle cx="20" cy="20" r="4" fill="#464A4D"/>
<circle cx="36" cy="20" r="4" fill="#464A4D"/>
<circle cx="52" cy="20" r="4" fill="#464A4D"/>
</svg>
