<svg width="523" height="393" viewBox="0 0 523 393" fill="none" xmlns="http://www.w3.org/2000/svg">
<path d="M325.762 5.51284L308.056 0.65884C305.777 -0.10116 303.532 0.137844 301.349 1.37384C299.159 2.61084 297.68 4.46784 296.92 6.94184L190.426 375.53C189.666 378.005 189.904 380.339 191.141 382.525C192.378 384.715 194.231 386.19 196.709 386.95L214.41 391.806C216.694 392.572 218.931 392.332 221.12 391.094C223.31 389.851 224.786 388 225.545 385.53L332.042 16.9358C332.801 14.4618 332.565 12.1278 331.326 9.93684C330.088 7.74684 328.237 6.27184 325.762 5.51284Z" fill="#A3A3A3"/>
<path d="M166.167 77.4646C166.167 74.9906 165.214 72.7996 163.311 70.8976L149.034 56.6217C147.131 54.7187 144.941 53.7646 142.467 53.7646C139.993 53.7646 137.802 54.7197 135.9 56.6217L2.856 189.666C0.95 191.569 0 193.759 0 196.233C0 198.707 0.953 200.897 2.856 202.799L135.899 335.843C137.801 337.749 139.988 338.697 142.466 338.697C144.944 338.697 147.131 337.746 149.033 335.843L163.31 321.575C165.213 319.673 166.166 317.482 166.166 315.005C166.166 312.534 165.213 310.344 163.31 308.442L51.107 196.233L163.311 84.0316C165.217 82.1296 166.167 79.9386 166.167 77.4646Z" fill="#A3A3A3"/>
<path d="M519.614 189.663L386.567 56.6187C384.665 54.7167 382.474 53.7617 380.004 53.7617C377.526 53.7617 375.343 54.7167 373.434 56.6187L359.163 70.8937C357.261 72.7967 356.312 74.9837 356.312 77.4607C356.312 79.9377 357.26 82.1257 359.163 84.0277L471.369 196.232L359.163 308.442C357.261 310.344 356.312 312.535 356.312 315.005C356.312 317.483 357.26 319.673 359.163 321.575L373.434 335.843C375.343 337.749 377.527 338.697 380.004 338.697C382.475 338.697 384.665 337.746 386.567 335.843L519.614 202.8C521.517 200.898 522.468 198.704 522.468 196.23C522.468 193.755 521.517 191.565 519.614 189.663Z" fill="#A3A3A3"/>
</svg>
